<svg xmlns="http://www.w3.org/2000/svg" viewBox="0 0 248.98 252.57"><g id="katman_2" data-name="katman 2"><g id="katman_1-2" data-name="katman 1"><path d="M20.65,234.47v-4.2H35.46v17A24.34,24.34,0,0,1,28.53,251a23.09,23.09,0,0,1-7.82,1.39A20.37,20.37,0,0,1,6,246.58a19.67,19.67,0,0,1,0-28.39,20.73,20.73,0,0,1,14.86-5.79,21.42,21.42,0,0,1,14.64,5.45L33,221.14a17.54,17.54,0,0,0-12-4.59,16,16,0,0,0-11.57,4.62,15.59,15.59,0,0,0,0,22.46A16.06,16.06,0,0,0,21,248.26a18.12,18.12,0,0,0,10.44-3.35l-.06-10.44Z"/><path d="M55.42,233.45H68.76v3.23H55.42Z"/><path d="M113.09,217.65a15.81,15.81,0,0,0-6.33-1.33,16.09,16.09,0,0,0-8.14,2.13,15.85,15.85,0,0,0-8,13.87,15.5,15.5,0,0,0,2.15,8A16.27,16.27,0,0,0,113.06,247a17.81,17.81,0,0,0,5.45-3.55l2.78,3a23,23,0,0,1-6.84,4.45,20.1,20.1,0,0,1-7.91,1.62,20.4,20.4,0,0,1-10.33-2.7,20.13,20.13,0,0,1-7.46-7.34A19.74,19.74,0,0,1,86,232.32a19.32,19.32,0,0,1,2.78-10.13,20.39,20.39,0,0,1,7.52-7.32A21.18,21.18,0,0,1,121.23,218l-2.72,3.29A17.4,17.4,0,0,0,113.09,217.65Z"/><path d="M164.8,225.31q3,3.09,3,8.54v18.38h-4.42V235a8.52,8.52,0,0,0-2.24-6.24,8.36,8.36,0,0,0-6.21-2.27,9.59,9.59,0,0,0-7.41,3.09,11.69,11.69,0,0,0-2.69,8v14.64H140.4v-42.1h4.43v19q2.94-6.75,11.63-6.86Q161.78,222.22,164.8,225.31Z"/><path d="M211.46,226.73q3.6,4.5,3.26,12.22H190.33a11.06,11.06,0,0,0,3.51,7.09,10.51,10.51,0,0,0,7.32,2.67,13.18,13.18,0,0,0,5.11-1,12.4,12.4,0,0,0,4.14-2.81l2.44,2.55a14.38,14.38,0,0,1-5.25,3.66,17.61,17.61,0,0,1-6.78,1.28,15.47,15.47,0,0,1-7.74-1.9,13.39,13.39,0,0,1-5.25-5.33,17.33,17.33,0,0,1,0-15.66,13.47,13.47,0,0,1,5.25-5.36,15.16,15.16,0,0,1,7.68-1.93Q207.86,222.22,211.46,226.73Zm-.71,8.71a9.93,9.93,0,0,0-2.92-6.95,9.8,9.8,0,0,0-7.07-2.58,10.2,10.2,0,0,0-7.14,2.58,10.41,10.41,0,0,0-3.29,6.95Z"/><path d="M240.22,215.18a5.42,5.42,0,0,0-1.51,4v4.09h8.57v3.46h-8.57v25.47h-4.36V226.76h-3.86V223.3h3.86v-3.58a10.5,10.5,0,0,1,1.3-5.33,8.86,8.86,0,0,1,3.49-3.46,9.58,9.58,0,0,1,4.68-1.19A11.5,11.5,0,0,1,249,211.1l-1.08,3.69a8.84,8.84,0,0,0-3.91-1.08A5.17,5.17,0,0,0,240.22,215.18Z"/><path d="M124.49,18.12a64.23,64.23,0,0,1,38.79,13l-35,35h25.63L189,31l12.36-12.36L188.55,5.84,176.19,18.2A82.67,82.67,0,0,0,43.45,66.1H62.07A64.68,64.68,0,0,1,124.49,18.12Z"/><path d="M124.49,147.3a64.36,64.36,0,0,1-38.8-13l35-35H95.08L72.88,121.5a63.9,63.9,0,0,1-10.8-22.18H43.45A82.62,82.62,0,0,0,60,134.42L47.63,146.77l12.8,12.81,12.36-12.36a82.67,82.67,0,0,0,132.74-47.9H186.91A64.68,64.68,0,0,1,124.49,147.3Z"/><rect x="24.84" y="73.65" width="199.3" height="18.12"/></g></g></svg>