<svg xmlns="http://www.w3.org/2000/svg" viewBox="0 0 281.53 233.67"><g id="katman_2" data-name="katman 2"><g id="katman_1-2" data-name="katman 1"><path d="M140.76,25.59a90.69,90.69,0,0,1,54.8,18.35L146.12,93.37h36.2l49.57-49.56,17.46-17.46-18.1-18.1L213.79,25.71A116.77,116.77,0,0,0,26.29,93.37h26.3A91.38,91.38,0,0,1,140.76,25.59Z"/><path d="M140.76,208.08A90.89,90.89,0,0,1,86,189.75L135.4,140.3H99.21L67.86,171.63A90.17,90.17,0,0,1,52.6,140.3H26.29a116.57,116.57,0,0,0,23.34,49.58L32.19,207.32l18.08,18.1L67.73,208a116.77,116.77,0,0,0,187.5-67.66H228.94A91.39,91.39,0,0,1,140.76,208.08Z"/><rect y="104.04" width="281.53" height="25.59"/></g></g></svg>