<svg xmlns="http://www.w3.org/2000/svg" viewBox="0 0 497.77 144.97"><g id="katman_2" data-name="katman 2"><g id="katman_1-2" data-name="katman 1"><path d="M242.13,76.2V71.5H258.7v19A26.68,26.68,0,0,1,251,94.72a26.19,26.19,0,0,1-8.76,1.55,22.8,22.8,0,0,1-16.42-6.51A21.22,21.22,0,0,1,219,73.85,21.1,21.1,0,0,1,225.8,58a23.21,23.21,0,0,1,16.64-6.48,24,24,0,0,1,16.39,6.1l-2.92,3.69a19.64,19.64,0,0,0-13.47-5.15,17.9,17.9,0,0,0-12.95,5.18,17.44,17.44,0,0,0,0,25.15,18,18,0,0,0,13,5.18,20.25,20.25,0,0,0,11.68-3.75l-.06-11.69Z"/><path d="M281.06,75.06H296v3.62H281.06Z"/><path d="M345.62,57.37a17.82,17.82,0,0,0-7.08-1.49,18,18,0,0,0-9.12,2.38,17.78,17.78,0,0,0-9,15.53,17.39,17.39,0,0,0,2.41,8.95,18,18,0,0,0,15.69,9,18.24,18.24,0,0,0,7-1.43,19.82,19.82,0,0,0,6.1-4l3.11,3.37a25.69,25.69,0,0,1-7.65,5,22.54,22.54,0,0,1-8.86,1.81,22.84,22.84,0,0,1-11.56-3,22.61,22.61,0,0,1-8.36-8.23,22.07,22.07,0,0,1-3.08-11.43,21.64,21.64,0,0,1,3.11-11.34,22.82,22.82,0,0,1,8.42-8.19,23.7,23.7,0,0,1,27.91,3.52l-3,3.69A19.19,19.19,0,0,0,345.62,57.37Z"/><path d="M403.51,65.94q3.38,3.47,3.37,9.56V96.08h-4.95V76.77a9.51,9.51,0,0,0-2.51-7,9.32,9.32,0,0,0-7-2.54,10.68,10.68,0,0,0-8.29,3.46,13,13,0,0,0-3,9V96.08h-5V49h5V70.17q3.3-7.56,13-7.69Q400.15,62.48,403.51,65.94Z"/><path d="M455.75,67.53q4,5.06,3.66,13.69H432.1A12.42,12.42,0,0,0,436,89.16a11.78,11.78,0,0,0,8.2,3A14.71,14.71,0,0,0,449.94,91a13.76,13.76,0,0,0,4.64-3.14l2.73,2.86a16.19,16.19,0,0,1-5.87,4.09,19.58,19.58,0,0,1-7.59,1.43,17.3,17.3,0,0,1-8.67-2.13,14.82,14.82,0,0,1-5.88-6,19.42,19.42,0,0,1,0-17.53,15.15,15.15,0,0,1,5.88-6,17,17,0,0,1,8.6-2.16Q451.72,62.48,455.75,67.53ZM455,77.28a11.13,11.13,0,0,0-3.27-7.78,11,11,0,0,0-7.91-2.89,11.42,11.42,0,0,0-8,2.89,11.69,11.69,0,0,0-3.68,7.78Z"/><path d="M488,54.61a6,6,0,0,0-1.69,4.51v4.57h9.59v3.87h-9.59V96.08h-4.89V67.56h-4.32V63.69h4.32v-4a11.79,11.79,0,0,1,1.46-6,10,10,0,0,1,3.91-3.88A10.77,10.77,0,0,1,492,48.51,13,13,0,0,1,497.77,50l-1.21,4.13a10,10,0,0,0-4.38-1.2A5.78,5.78,0,0,0,488,54.61Z"/><path d="M87.33,15.88a56.26,56.26,0,0,1,34,11.38L90.66,57.93h22.45l30.76-30.75L154.7,16.35,143.47,5.12,132.64,16a72.45,72.45,0,0,0-116.33,42H32.63A56.68,56.68,0,0,1,87.33,15.88Z"/><path d="M87.33,129.09a56.41,56.41,0,0,1-34-11.37L84,87H61.55L42.1,106.48A55.86,55.86,0,0,1,32.64,87H16.31A72.25,72.25,0,0,0,30.79,117.8L20,128.63l11.22,11.23L42,129A72.45,72.45,0,0,0,158.35,87H142A56.69,56.69,0,0,1,87.33,129.09Z"/><rect y="64.55" width="174.66" height="15.88"/></g></g></svg>